<?xml version="1.0" encoding="UTF-8"?>
<svg id="OBJECTS" xmlns="http://www.w3.org/2000/svg" viewBox="0 0 750 500">
  <defs>
    <style>
      .cls-1 {
        fill: #261211;
      }

      .cls-1, .cls-2, .cls-3, .cls-4, .cls-5, .cls-6, .cls-7, .cls-8, .cls-9, .cls-10, .cls-11, .cls-12, .cls-13, .cls-14, .cls-15, .cls-16, .cls-17, .cls-18, .cls-19, .cls-20, .cls-21, .cls-22, .cls-23, .cls-24, .cls-25, .cls-26, .cls-27 {
        stroke-width: 0px;
      }

      .cls-2 {
        fill: #260007;
      }

      .cls-3 {
        fill: #191213;
      }

      .cls-4, .cls-5 {
        fill: #269926;
      }

      .cls-4, .cls-6, .cls-7, .cls-10, .cls-12, .cls-15, .cls-19, .cls-23, .cls-24 {
        fill-rule: evenodd;
      }

      .cls-6 {
        fill: #a9c2c2;
      }

      .cls-7 {
        fill: #f1cf00;
      }

      .cls-8 {
        fill: #3d5e77;
      }

      .cls-9 {
        fill: #edb38c;
      }

      .cls-12 {
        fill: #269e26;
      }

      .cls-13 {
        fill: #b7cecc;
      }

      .cls-14 {
        fill: #681616;
      }

      .cls-15, .cls-25 {
        fill: #26be26;
      }

      .cls-16 {
        fill: #9e5e32;
      }

      .cls-17 {
        fill: #7e9191;
      }

      .cls-18 {
        fill: #4a6d82;
      }

      .cls-19 {
        fill: #9dc6c6;
      }

      .cls-20 {
        fill: #4c3729;
      }

      .cls-21 {
        fill: #2e4c5e;
      }

      .cls-22 {
        fill: #281b1c;
      }

      .cls-23 {
        fill: #004;
      }

      .cls-24 {
        fill: #26b426;
      }

      .cls-26 {
        fill: #c19272;
      }

      .cls-27 {
        fill: #ceeae8;
      }
    </style>
  </defs>
  <path class="cls-23" d="m283.75,328.05c27.49,0,49.77,22.28,49.77,49.77s-22.28,49.77-49.77,49.77-49.77-22.28-49.77-49.77,22.28-49.77,49.77-49.77m0,12.78c-20.43,0-36.98,16.56-36.98,36.98s16.56,36.98,36.98,36.98,36.99-16.56,36.99-36.98-16.56-36.98-36.99-36.98"/>
  <path class="cls-6" d="m283.75,340.83c20.43,0,36.99,16.56,36.99,36.98s-16.56,36.98-36.99,36.98-36.98-16.56-36.98-36.98,16.56-36.98,36.98-36.98m0,13.93c-12.73,0-23.06,10.32-23.06,23.06s10.32,23.06,23.06,23.06,23.06-10.32,23.06-23.06-10.32-23.06-23.06-23.06"/>
  <path class="cls-17" d="m283.75,403.98c-14.45,0-26.16-11.72-26.16-26.16s11.72-26.16,26.16-26.16,26.16,11.72,26.16,26.16-11.72,26.16-26.16,26.16m0-60.04c-18.71,0-33.88,15.17-33.88,33.88s15.17,33.88,33.88,33.88,33.88-15.17,33.88-33.88-15.17-33.88-33.88-33.88"/>
  <path class="cls-6" d="m279.24,369.61c.61-.33,1.25-.6,1.9-.79l1.24-16.12h2.74l1.24,16.12c.65.19,1.29.45,1.9.79l12.28-10.52.97.97.97.97-10.52,12.28c.33.61.6,1.25.79,1.9l16.12,1.24v2.74l-16.12,1.24c-.19.65-.45,1.29-.79,1.9l10.52,12.28-.97.97-.97.97-12.28-10.52c-.61.33-1.25.6-1.9.79l-1.24,16.12h-2.74l-1.24-16.12c-.65-.19-1.29-.45-1.9-.79l-12.28,10.52-.97-.97-.97-.97,10.52-12.28c-.33-.61-.6-1.25-.79-1.9l-16.12-1.24v-2.74l16.12-1.24c.19-.65.45-1.29.79-1.9l-10.52-12.28.97-.97.97-.97,12.28,10.52Z"/>
  <path class="cls-6" d="m498.9,389.06c6.19,0,11.24-5.05,11.24-11.24s-5.05-11.24-11.24-11.24-11.24,5.05-11.24,11.24,5.05,11.24,11.24,11.24Z"/>
  <path class="cls-6" d="m506.85,369.87c4.39,4.39,4.39,11.5,0,15.89-4.39,4.39-11.51,4.39-15.89,0-4.39-4.39-4.39-11.51,0-15.89,4.39-4.39,11.51-4.39,15.89,0Z"/>
  <path class="cls-6" d="m510.14,377.82c0,6.21-5.03,11.24-11.24,11.24s-11.24-5.03-11.24-11.24,5.03-11.24,11.24-11.24,11.24,5.03,11.24,11.24Z"/>
  <path class="cls-6" d="m506.85,385.76c-4.39,4.39-11.5,4.39-15.89,0-4.39-4.39-4.39-11.51,0-15.89,4.39-4.39,11.51-4.39,15.89,0,4.39,4.39,4.39,11.51,0,15.89Z"/>
  <path class="cls-6" d="m498.9,389.06c-6.21,0-11.24-5.03-11.24-11.24s5.03-11.24,11.24-11.24,11.24,5.03,11.24,11.24-5.03,11.24-11.24,11.24Z"/>
  <path class="cls-6" d="m490.95,385.76c-4.39-4.39-4.39-11.51,0-15.89,4.39-4.39,11.5-4.39,15.89,0s4.39,11.51,0,15.89c-4.39,4.39-11.5,4.39-15.89,0Z"/>
  <path class="cls-6" d="m487.66,377.82c0-6.21,5.03-11.24,11.24-11.24s11.24,5.03,11.24,11.24-5.03,11.24-11.24,11.24-11.24-5.03-11.24-11.24Z"/>
  <path class="cls-23" d="m498.9,328.05c27.49,0,49.77,22.28,49.77,49.77s-22.28,49.77-49.77,49.77-49.77-22.28-49.77-49.77,22.28-49.77,49.77-49.77m0,12.78c-20.43,0-36.98,16.56-36.98,36.98s16.56,36.98,36.98,36.98,36.98-16.56,36.98-36.98-16.56-36.98-36.98-36.98"/>
  <path class="cls-6" d="m498.9,340.83c20.43,0,36.98,16.56,36.98,36.98s-16.56,36.98-36.98,36.98-36.98-16.56-36.98-36.98,16.56-36.98,36.98-36.98m0,13.93c-12.73,0-23.06,10.32-23.06,23.06s10.32,23.06,23.06,23.06,23.06-10.32,23.06-23.06-10.32-23.06-23.06-23.06"/>
  <path class="cls-17" d="m498.9,403.98c-14.45,0-26.16-11.72-26.16-26.16s11.72-26.16,26.16-26.16,26.16,11.72,26.16,26.16-11.72,26.16-26.16,26.16m0-60.04c-18.71,0-33.88,15.17-33.88,33.88s15.17,33.88,33.88,33.88,33.88-15.17,33.88-33.88-15.17-33.88-33.88-33.88"/>
  <path class="cls-6" d="m494.39,369.61c.61-.33,1.25-.6,1.9-.79l1.24-16.12h2.74l1.24,16.12c.66.19,1.29.45,1.9.79l12.28-10.52.97.97.97.97-10.52,12.28c.34.61.6,1.25.79,1.9l16.12,1.24v2.74l-16.12,1.24c-.19.65-.45,1.29-.79,1.9l10.52,12.28-.97.97-.97.97-12.28-10.52c-.61.33-1.25.6-1.9.79l-1.24,16.12h-2.74l-1.24-16.12c-.66-.19-1.29-.45-1.9-.79l-12.28,10.52-.97-.97-.97-.97,10.52-12.28c-.34-.61-.6-1.25-.79-1.9l-16.12-1.24v-2.74l16.12-1.24c.19-.65.45-1.29.79-1.9l-10.52-12.28.97-.97.97-.97,12.28,10.52Z"/>
  <path class="cls-10" d="m456.41,314.95l9.02-5.21,37.61,66.02c1.42,2.49.12,5.09-1.91,7.12-2.03,2.02-5.7.58-7.11-1.91l-37.61-66.02Z"/>
  <path class="cls-15" d="m498.9,314.18c5.8,0,11.42.78,16.75,2.23,1.61.44,2.78,1.61,3.21,3.23.43,1.62,0,3.21-1.18,4.4l-72.56,72.56c-1.18,1.18-2.78,1.61-4.39,1.18-1.61-.43-2.79-1.6-3.23-3.21-1.45-5.34-2.23-10.95-2.23-16.75,0-35.14,28.49-63.64,63.64-63.64Z"/>
  <path class="cls-15" d="m281.85,301.75l98.73-1.45c-18.64,36.61-19.46,63.07,0,85.15h-45.23l-3.2-3.16h-108.95c-2.76,0-5.14-1.08-6.96-3.16-1.82-2.08-2.57-4.57-2.21-7.31,4.97-37.18,27.68-64.78,63.8-66.69,4.31-.23,4.84-2.42,4.02-3.38Z"/>
  <path class="cls-4" d="m365.59,380.48h4.99c-15.18-23.64-9.68-49.85,1.99-75.09l-3.91.06c-3.43.05-6.32,2.05-7.59,5.24-8.63,21.83-12.1,44.02-3.09,64.8,1.34,3.1,4.23,4.99,7.61,4.99Z"/>
  <path class="cls-4" d="m334.4,383.26h44.02c14,0,32.82,2.01,41.62-12.6l38.63-64.14c4.91-8.16,4.96-14.39,2.3-25.49l-8.83-36.8c-.78-3.27-1.14-5.84,1.99-5.84h4.05c3.87,0,7.14,2.57,8.05,6.33l7.81,32.14c1.58,6.5,6.94,27.99,3.52,33.74l-47.26,79.3h-96.81c.41-2.17.72-4.39.91-6.64Z"/>
  <path class="cls-25" d="m332.71,389.35h96.55c.64,0,1.17.52,1.17,1.17v4.31c0,.64-.52,1.17-1.17,1.17h-96.55c-.64,0-1.17-.52-1.17-1.17v-4.31c0-.64.52-1.17,1.17-1.17Z"/>
  <path class="cls-15" d="m283.62,312.07c35.6,0,65.01,26.49,69.6,60.84.33,2.45-.35,4.69-1.98,6.56-1.63,1.86-3.76,2.83-6.24,2.83h-122.77c-2.48,0-4.61-.97-6.24-2.83-1.63-1.86-2.31-4.1-1.98-6.56,4.59-34.34,34-60.84,69.6-60.84Z"/>
  <path class="cls-4" d="m283.62,318.86c30.22,0,55.19,22.49,59.09,51.65.28,2.08-.3,3.98-1.68,5.57-.18.2-.37.4-.56.58-7.63-24.13-30.2-41.62-56.85-41.62s-49.22,17.49-56.85,41.62c-.19-.18-.38-.37-.56-.58-1.38-1.58-1.96-3.48-1.68-5.57,3.9-29.16,28.87-51.65,59.09-51.65Z"/>
  <rect class="cls-11" x="277.91" y="283.52" width="105.26" height="18.23" rx="2.19" ry="2.19"/>
  <path class="cls-25" d="m207.19,173.1h116.22c2.27,0,4.11,1.84,4.11,4.11v101.97c0,2.27-1.84,4.11-4.11,4.11h-116.22c-2.27,0-4.11-1.84-4.11-4.11v-101.97c0-2.27,1.84-4.11,4.11-4.11Z"/>
  <path class="cls-12" d="m213.85,179.41h102.91c2,0,3.64,1.64,3.64,3.64v37.47c-36.73,14.89-84.43-19.83-110.19,29.06v-66.53c0-2,1.64-3.64,3.64-3.64Z"/>
  <path class="cls-7" d="m481.11,252.17c2.51-.21,5.01,4.99,5.57,11.62.56,6.63-1.02,12.18-3.53,12.39-2.51.21-5.01-4.99-5.57-11.62-.56-6.63,1.02-12.18,3.53-12.39Z"/>
  <path class="cls-24" d="m480.1,250.58h.06c.91-.11,1.73.55,1.83,1.45l2.72,23.8c.1.91-.55,1.73-1.45,1.84h-.06c-8.46.97-16.01-4.31-16.87-11.79-.86-7.48,5.31-14.33,13.77-15.3Z"/>
  <path class="cls-19" d="m477.43,251.1l3.48,26.69c.75.01,1.52-.02,2.29-.11h.06c.9-.11,1.56-.94,1.45-1.84l-2.72-23.8c-.1-.91-.92-1.56-1.83-1.46h-.06c-.92.11-1.81.29-2.67.52Z"/>
  <path class="cls-10" d="m456.49,241.28l-18.32-4.71c-.95-.24-1.92.33-2.17,1.28l-.48,1.86c-.24.95.33,1.92,1.28,2.17l18.32,4.71c.95.24,1.93-.33,2.17-1.28l.48-1.86c.24-.95-.33-1.92-1.28-2.17Z"/>
  <line class="cls-9" x1="459.36" y1="238.18" x2="459.25" y2="238.3"/>
  <g>
    <path class="cls-3" d="m381.27,369.96c-.78,1.7-1.63,3.4-2.02,5.23-.39,1.83-.26,3.86.79,5.41,2,2.94,6.22,3.03,9.77,2.8,1.75-.11,3.49-.23,5.24-.34,2.24-.14,4.84-.5,5.95-2.45.99-1.73.31-3.89-.26-5.8-1.29-4.32-1.93-8.84-1.87-13.35.02-1.34.09-2.73-.41-3.97-.7-1.74-2.42-2.89-4.23-3.38-4.08-1.11-7.17-1.01-8.28,2.91-1.25,4.44-2.74,8.75-4.67,12.95Z"/>
    <path class="cls-21" d="m395.16,309.29c.91.99,1.84,2.05,2.17,3.36.3,1.21.05,2.48-.31,3.68-1.56,5.27-5,10.03-5.31,15.52-.09,1.65.11,3.32-.2,4.94-.35,1.82-1.31,3.46-2.26,5.05-1.24,2.09-2.49,4.19-3.73,6.28-.77,1.3-1.57,2.71-1.48,4.22.18,2.85,3.27,4.47,5.98,5.37,1.57.52,3.53.91,4.68-.28.47-.49.7-1.15.92-1.79,4.69-13.93,9.39-27.85,14.08-41.78,1.17-3.48,2.35-7.31,1.05-10.75-1.43-3.79-5.37-5.9-9-7.68-3.37-1.65-6.75-3.31-10.12-4.96-2.95-1.45-6.97-2.72-9.13-.24-3.02,3.46-.1,6.28,2.36,8.12,3.82,2.86,7.09,7.41,10.32,10.93Z"/>
    <path class="cls-22" d="m388.23,371.22c-1.18,2.95-2.38,6.05-2.04,9.21.07.69.24,1.41.74,1.89.42.41,1.02.58,1.59.74,9.86,2.62,20.29,3.03,30.32,1.18,1.45-.27,2.95-.61,4.11-1.51,1.16-.91,1.88-2.55,1.3-3.91-.73-1.67-2.87-2.06-4.67-2.26-3.23-.37-6.54-.88-9.37-2.48-2.84-1.6-5.14-4.5-5.17-7.75-.02-2.47,1.07-5.46-.8-7.08-.89-.77-2.15-.89-3.33-.96-3.9-.25-5.94-1.1-8.3,1.76-2.09,2.52-3.2,8.1-4.38,11.18Z"/>
    <path class="cls-1" d="m338.57,208.37c-8.38,15.76-12.62,33.33-16.77,50.68-.37,1.53-.73,3.15-.31,4.66.42,1.52,1.92,2.86,3.46,2.53.02,1.49.05,2.99.07,4.48,2.1,3.02,5.83,4.58,9.5,4.89,3.67.31,7.33-.45,10.93-1.22,7.79-1.65,15.58-3.3,23.36-4.94,1.57-.33,3.27-.74,4.26-2,1-1.26.63-3.6-.95-3.87,5.53-.99,7.85-7.49,9.13-12.96,1.29-5.49,2.58-10.97,3.87-16.46,2.05-8.71,4.11-17.51,4.23-26.46.09-6.62-.56-14.18,4.13-18.85,1.47-1.46,3.43-2.59,4.16-4.52,1.11-2.97-1.2-6.03-3.35-8.36-2.8-3.03-5.6-6.07-8.4-9.1-.45-.49-.97-1.01-1.64-1.06-.78-.05-1.42.57-1.95,1.14-4.08,4.42-6.7,6.17-11.99,8.76-4.7,2.3-9.05,5.27-13.01,8.68-7.21,6.21-15.15,15-18.73,23.97Z"/>
    <path class="cls-1" d="m353.52,220.15c-1.13,9.88,1.28,20.69,8.61,27.41,4.93,4.52,11.59,6.78,18.23,7.5,6.64.73,13.35.05,20-.63.41-.76.83-1.52,1.24-2.28,1.59.55,3.18,1.11,4.77,1.66.58-.69,1.15-1.38,1.73-2.07.56,1.69,2.57,2.75,4.28,2.26.53-4.58,1.88-9.07,3.97-13.19-12.08-2.38-24.32-4.82-35.35-10.29-1.75-.87-3.7-1.84-5.57-1.28,1.46-8.04,1.86-16.27,1.18-24.41-.32-3.87-.98-7.95-3.47-10.93-11.7-14.01-18.86,19.78-19.6,26.23Z"/>
    <path class="cls-2" d="m377.22,199.8c-.32-1.88-.67-3.79-1.5-5.51-.86-1.79-2.75-3.49-4.64-2.86-2.29.76-2.35,3.94-1.96,6.33,1.14,6.96,2.28,13.92,3.42,20.88.81,4.94,1.6,10.13,0,14.87,1.06-.11,2.13-.21,3.19-.32.07,1.17.14,2.35.21,3.52,8.23,2.39,16.69,3.96,25.23,4.68-.18-3.15-4.07-4.4-7.14-5.11-3.68-.85-7.48-1.99-10.86-3.69-4.2-2.12-3.66-2.89-3.72-7.69-.1-8.41-.85-16.8-2.23-25.1Z"/>
    <path class="cls-2" d="m389.77,188.2c1.82-1.32,3.49-2.86,4.96-4.56-1.48-1.85-2.96-3.7-4.44-5.55-.23-.28-.46-.57-.79-.73-.61-.29-1.35-.01-1.86.43-1.36,1.17-1.51,3.29-.86,4.95.66,1.66,1.96,2.97,3.23,4.23"/>
    <path class="cls-2" d="m372.57,262.53c-1.51,1.34-3.76,1.33-5.78,1.23-.99-.05-2.02-.11-2.86-.63-.84-.52-1.37-1.68-.87-2.53.47-.81,1.56-.97,2.49-1.02,1.35-.07,2.72-.1,3.99-.55,1.27-.46,2.44-1.44,2.71-2.76,1.05-.59,2.49.18,2.88,1.33.38,1.14-.09,2.43-.9,3.33-.8.9-1.89,1.48-2.96,2.05"/>
    <path class="cls-8" d="m334.96,285.85c5.21,2.99,11.37,3.75,17.34,4.44,6.65.77,13.31,1.54,19.96,2.32,9.21,1.07,19.45,2.7,25.07,10.06.58.76,1.18,1.63,2.11,1.86,1.02.25,2.02-.36,3.03-.65,1.01-.29,2.43.01,2.54,1.06-1.09.98-1.69,2.48-1.6,3.94.76-.13,1.51-.26,2.27-.39.44,1.82-.74,3.6-1.75,5.18-3.16,4.94-5.1,10.65-5.63,16.49-.37,4.15-.1,8.6-2.27,12.16-.98,1.61-2.4,2.92-3.41,4.52-.92,1.46-1.47,3.15-1.6,4.87-.42,5.73,4.86,11.34,10.58,10.86,5.87-.49,9.81-6.08,12.65-11.24,8.67-15.78,15-33.01,17.06-50.89.34-2.97.56-6.04-.35-8.89-2.04-6.43-8.95-9.79-15.22-12.28-10.64-4.21-21.45-8-32.39-11.34-2.98-.91-6-1.8-9.11-2-2.77-.18-5.54.18-8.29.54-10.57,1.39-21.14,2.77-31.72,4.16-4.91.64-8.86-.15-7.12,5.87,1.15,3.96,4.33,7.34,7.84,9.36Z"/>
    <path class="cls-18" d="m406.23,284.85c3.15,1.22,6.39,2.48,8.85,4.8,5.9,5.56,5.4,15.13,2.87,22.84-2.53,7.7-6.66,15.16-6.6,23.27,1.2,1.07,2.91-.54,3.66-1.96,5.48-10.42,9.04-21.84,10.44-33.53.37-3.08.53-6.42-1.11-9.05-1.42-2.27-3.92-3.58-6.33-4.75-12.26-5.98-27.79-14.38-41.45-15.85-.35,6.09,24.56,12.28,29.67,14.25Z"/>
    <path class="cls-9" d="m423.1,252.32c1.22.04,2.45.07,3.64-.21,4.52-1.06,7.07-6.25,11.53-7.56.27-.08.56-.15.84-.09.4.08.71.38.99.69.72.8,1.35,1.71,2.22,2.35.87.64,2.08.98,3.04.48.96-.5,1.3-2.04.43-2.68.41.96,1.68,1.43,2.62.97s1.35-1.75.85-2.66c.44.74,1.38,1.14,2.22.95.84-.19,1.51-.96,1.6-1.82.12-1.26-.89-2.31-1.73-3.25-1.23-1.38-2.27-2.94-3.55-4.27-1.29-1.33-2.91-2.46-4.75-2.66-1.46-.16-2.92.27-4.31.75-3.12,1.08-6.15,2.43-9.03,4.04-2.29,1.28-4.5,2.72-6.92,3.73-2.42,1.02-5.12,1.59-7.68,1.03-1.58-.35-3.87,8.2-3.16,9.41.62,1.04,3.52.59,4.71.62,2.15.06,4.3.13,6.45.19Z"/>
    <path class="cls-9" d="m432.4,153.02c1.16,1.87,3.79,2.53,4.7,4.53-3.19,1.23-5.79,3.9-6.91,7.13-1.34,3.84-.8,8.53-3.56,11.52-2.48,2.68-6.7,2.84-10.24,1.97-3.55-.87-6.9-2.56-10.53-2.94-4.52-.47-9.22,1.26-12.35,4.55-.73.77-1.59,1.7-2.64,1.52-.72-.13-1.23-.76-1.66-1.35-1.75-2.35-3.49-4.69-5.24-7.04,2.49-2.73,3.89-6.42,3.83-10.11-.05-2.87-.94-5.66-1.13-8.53-.72-10.44,8.31-19.72,18.48-22.19,7.94-1.93,21.27-1.14,28.14,3.91,6.89,5.06-4.49,11.23-.88,17.03Z"/>
    <path class="cls-16" d="m425.71,141.83c.49,1.25-1.27,2.18-2.61,2.18-2.61,0-5.12-1.03-7.72-1.25-2.6-.22-5.67.72-6.53,3.19-.58,1.65,0,3.45.22,5.18.22,1.73-.2,3.87-1.83,4.5-1.43-1.83-.93-4.8-2.68-6.34-1.48-1.31-3.79-.87-5.6-.07-1.51.67-3,1.61-3.74,3.08-1.74,3.46,1.43,7.75.15,11.4-.43,1.22-1.31,2.22-2.2,3.16-1.09,1.15-2.25,2.31-3.71,2.91-1.46.61-3.31.55-4.46-.54-1.95-1.84-.88-5.07-1.37-7.7-.53-2.78-2.89-4.95-3.4-7.74-.28-1.54.03-3.12.38-4.64.88-3.91,1.97-7.85,4.06-11.27,3.43-5.62,9.36-9.44,15.7-11.19,6.35-1.75,13.09-1.56,19.58-.47,2.83.48,5.68,1.15,8.15,2.62,2.89,1.73,5.54,4.62,8.89,4.31-.9.82-1.98,1.43-3.14,1.79,1.56.72,2.97,1.76,4.13,3.03-.45.75-1.3,1.16-2.15,1.21.9,1.52.3,3.99-1.71,4.21-1.42.15-3.02-1.4-4.47-1.61.36.19.75.67,1.12.91-.92.3-4.56.41-5.07-.88Z"/>
    <path class="cls-26" d="m402.71,157.92c.02.17-.24.26-.39.17-.15-.09-.2-.28-.25-.45-.17-.64-.33-1.34-.1-1.96.23-.63,1.02-1.09,1.58-.74.46-1.09.12-2.46-.79-3.2-.92-.74-2.33-.8-3.29-.12-.78.54-1.22,1.44-1.55,2.33-.27.73-.49,1.51-.33,2.27.13.63.52,1.17.9,1.7.44.61.88,1.21,1.31,1.82.42.59.95,1.23,1.68,1.25.73.02,1.32-.66,1.46-1.37.14-.71-.08-1.44-.33-2.13"/>
    <path class="cls-27" d="m430.17,155.37c1.18-.54,2.43-1.16,3.71-.95,1.93.32,3.09,2.49,2.99,4.44-.1,1.95-1.13,3.72-2.12,5.4-1.7,2.86-3.41,5.73-5.15,8.57-1.17,1.91-2.43,3.88-4.34,5.05-2.38,1.45-5.45,1.41-8.1.53-2.65-.87-4.99-2.49-7.28-4.08.1-1.5,1.59-2.43,2.62-3.52,1.99-2.12,2.39-5.29,2.1-8.18-.46-4.52,2.16-3.43,5.8-4.12,3.37-.64,6.67-1.7,9.78-3.14Z"/>
    <path class="cls-27" d="m406,153.63c3.38,2.5,6.92,4.76,10.6,6.79.58.32,1.11-.57.52-.9-3.68-2.03-7.21-4.29-10.6-6.79-.54-.4-1.05.5-.52.89Z"/>
    <path class="cls-27" d="m395.03,162.97c5.61,3.78,11.12,7.71,16.53,11.77.53.4,1.05-.5.52-.89-5.41-4.07-10.92-7.99-16.53-11.77-.55-.37-1.07.52-.52.89Z"/>
    <path class="cls-13" d="m417.49,165.52c.08-1.03.04-2.14.64-2.99.68-.96,1.95-1.26,3.09-1.56,2.04-.55,4.01-1.37,5.84-2.44.32-.19.66-.39,1.04-.41.86-.04,1.46.95,1.4,1.81-.05.86-.54,1.62-.9,2.4l-.09.46c.05.18.22.28.36.4.67.58.64,1.71.1,2.42-.54.7-1.46,1.03-2.34,1.1-.58.04-1.29.06-1.57.57-.13.24-.13.53-.13.81-.07,2.67-2.14,5.17-4.75,5.73.19.55.27,1.13.24,1.71-.01.22-.05.46-.21.6-.27.23-.68.07-1-.1-1.94-1.05-4.72-1.62-4.05-4.1.61-2.26,2.33-3.84,2.33-6.41Z"/>
    <path class="cls-25" d="m399.11,161.32c.88-.07,1.79-.15,2.56-.64.72-.46,1.24-1.23,1.66-2.02,2.06-3.85,2.55-8.78,5.49-11.87,3.59-3.77,9.22-3.28,14.18-3.28,3.96,0,7.92-.49,11.79-1.43.71-.17,1.44-.38,2.03-.85,1.05-.84,1.46-2.37,1.5-3.8.17-5.35-3.6-9.88-7.62-12.89-7.04-5.28-15.67-7.94-24.18-7.45-8.51.49-16.84,4.12-23.34,10.17-3.45,3.21-6.49,7.29-7.44,12.15-.59,3.01-.35,6.14.04,9.19.35,2.69.83,5.41,2,7.8,4.04,8.21,14.36,5.46,21.32,4.93Z"/>
    <path class="cls-5" d="m393.15,121.11c-5.32,1.85-10.39,4.87-13.69,9.43-3.3,4.56-4.58,10.8-2.35,15.97.66,1.54,1.71,3.03,3.27,3.63,2.09.81,4.51-.22,6.09-1.81,3.16-3.17,4.85-7.53,8.06-10.76,2.63-2.64,5.92-3.85,8.69-6.17,2.38-2,3.3-5.39,1.64-8.25-2.4-4.16-7.94-3.35-11.72-2.04Z"/>
    <path class="cls-14" d="m401.49,174.76l.05.49-.33.28c-.61.31-1.25.56-1.91.74-1.56-4.59-2.6-9.36-3.11-14.18-.05-.51-.1-1.04.09-1.52.33-.82,2.31-1.97,3.07-1.23.46.45-.07,4.4-.03,5.17.2,3.5.93,6.97,2.16,10.25Z"/>
    <path class="cls-20" d="m422.21,148.66c2.07-1.02,3.79-1.3,6.09-1.26,1.01.02,2.1-.29,2.12-1.48l-.09-.11c-.68-.11-1.35.12-2.03.12-.88,0-1.68-.07-2.55.1-1.43.27-3.16.91-3.97,2.2-.18.29.17.57.44.44Z"/>
    <path class="cls-20" d="m422.74,151.75c1.34-.8,2.75-.79,4.25-1.02.75-.12,1.64-.23,2.03-.95.09-.16-.05-.35-.23-.3-.5.13-.91.43-1.4.58-.54.17-1.11.23-1.65.37-1.05.26-2.11.68-3.01,1.28l.02.03Z"/>
    <path class="cls-20" d="m426.24,150.56c-.11.46-.41,1.61.33,1.74.81.14.83-1.09.73-1.59l-.29-.29-.08-.02-.33.13-.1.39.08.28v.37s.09-.19.09-.19l-.03-.23c-.03-.2-.08-.4-.12-.6h-.28Z"/>
    <path class="cls-20" d="m424.55,152.31c.55.3,1.16.45,1.79.4.47-.03,1.17-.14,1.4-.61l-.09-.16c-.41,0-.77.26-1.18.34-.61.12-1.21.03-1.77-.23-.17-.08-.32.16-.15.25Z"/>
    <path class="cls-20" d="m425.82,153.43c.28,0,.56,0,.8-.16l-.07-.25c-.25,0-.48.06-.73.06-.23,0-.22.34,0,.35Z"/>
  </g>
</svg>